<svg class="svg-icon" style="width: 1em;height: 1em;vertical-align: middle;fill: currentColor;overflow: hidden;" viewBox="0 0 1024 1024" version="1.1" xmlns="http://www.w3.org/2000/svg"><path d="M829.44 860.16c6.144 0 10.24-2.048 14.336-6.144s6.144-8.192 6.144-14.336V619.52c0-6.144-2.048-10.24-6.144-14.336s-8.192-6.144-14.336-6.144H515.072c-23.552 0-44.032-12.288-54.272-32.768l-35.84-67.584c-4.096-7.168-10.24-11.264-18.432-11.264H184.32c-6.144 0-10.24 2.048-14.336 6.144-4.096 4.096-6.144 8.192-6.144 14.336V839.68c0 11.264 9.216 20.48 20.48 20.48h645.12m0 20.48H184.32c-22.528 0-40.96-18.432-40.96-40.96V507.904c0-11.264 4.096-20.48 12.288-28.672s17.408-12.288 28.672-12.288h222.208c15.36 0 28.672 8.192 35.84 21.504l35.84 67.584c7.168 14.336 20.48 21.504 35.84 21.504H829.44c11.264 0 20.48 4.096 28.672 12.288s12.288 17.408 12.288 28.672V839.68c0 11.264-4.096 20.48-12.288 28.672-8.192 8.192-17.408 12.288-28.672 12.288z"  /><path d="M409.6 719.872c13.312 4.096 22.528 12.288 22.528 28.672 0 22.528-18.432 33.792-44.032 33.792h-38.912V666.624h35.84c23.552 0 40.96 7.168 40.96 28.672 0 11.264-6.144 21.504-16.384 24.576zM367.616 768h18.432c18.432 0 28.672-6.144 28.672-20.48 0-13.312-10.24-18.432-28.672-18.432h-18.432V768z m15.36-87.04h-16.384v33.792h15.36c17.408 0 24.576-6.144 24.576-17.408 1.024-11.264-7.168-16.384-23.552-16.384z m114.688 103.424c-29.696 0-50.176-22.528-50.176-60.416 0-36.864 20.48-59.392 50.176-59.392s50.176 22.528 50.176 59.392-20.48 60.416-50.176 60.416z m0-103.424c-19.456 0-31.744 16.384-31.744 43.008s12.288 44.032 31.744 44.032c19.456 0 31.744-17.408 31.744-44.032 0-26.624-12.288-43.008-31.744-43.008z m156.672 101.376v-57.344c0-10.24 1.024-25.6 2.048-35.84H655.36l-9.216 26.624-20.48 55.296H614.4l-20.48-55.296-9.216-26.624H583.68c1.024 10.24 2.048 25.6 2.048 35.84v57.344h-16.384V666.624h20.48l21.504 58.368c3.072 7.168 5.12 15.36 7.168 23.552h1.024c3.072-8.192 5.12-15.36 7.168-23.552l20.48-58.368h21.504v114.688h-14.336v1.024zM232.448 566.272c-6.144 0-10.24-4.096-10.24-10.24s4.096-10.24 10.24-10.24h1.024c6.144 0 10.24 4.096 10.24 10.24s-4.096 10.24-10.24 10.24h-1.024m41.984 0c-6.144 0-10.24-4.096-10.24-10.24s4.096-10.24 10.24-10.24h2.048c6.144 0 10.24 4.096 10.24 10.24s-4.096 10.24-10.24 10.24h-2.048m43.008 0c-6.144 0-10.24-4.096-10.24-10.24s4.096-10.24 10.24-10.24h1.024c6.144 0 10.24 4.096 10.24 10.24s-4.096 10.24-11.264 10.24m41.984 0c-6.144 0-10.24-4.096-10.24-10.24s4.096-10.24 10.24-10.24h1.024c6.144 0 10.24 4.096 10.24 10.24s-4.096 10.24-11.264 10.24M252.928 475.136h-20.48v-204.8c0-11.264 4.096-20.48 12.288-28.672 8.192-8.192 17.408-12.288 28.672-12.288h399.36c11.264 0 20.48 4.096 28.672 12.288 8.192 8.192 12.288 17.408 12.288 28.672v327.68h-20.48v-327.68c0-6.144-2.048-10.24-6.144-14.336s-8.192-6.144-14.336-6.144h-399.36c-6.144 0-10.24 2.048-14.336 6.144s-6.144 8.192-6.144 14.336v204.8"  /><path d="M309.248 240.64h-20.48v-59.392c0-11.264 4.096-20.48 12.288-28.672 8.192-8.192 17.408-12.288 28.672-12.288h421.888c22.528 0 40.96 18.432 40.96 40.96v416.768h-20.48V181.248c0-11.264-9.216-20.48-20.48-20.48H329.728c-6.144 0-10.24 2.048-14.336 6.144-4.096 4.096-6.144 8.192-6.144 14.336v59.392"  /></svg>